The.Last.Song.2010.DVDRip.X264.SDTeam(https://www.scenedemon.org)
Language.....: English -( GREETZ TO THE GREATZ:BG UnDeaD VOS WICCY MR A )

A drama centered on a rebellious girl who is sent to a Southern beach town
for the summer to stay with her father. Through their mutual love of music,
the estranged duo learn to reconnect

The Last Song 2010 DVDRip.X264.SDTeam 
http://www.imdb.com/title/tt1294226

Format : Matroska
File size : 482 MiB
Duration : 1h 47mn
Overall bit rate : 627 Kbps
Encoded date : UTC 2010-07-20 07:00:07

Video
ID : 1
Format : AVC
Format/Info : Advanced Video Codec
Format profile : High@L2.1
Format settings, CABAC : Yes
Format settings, ReFrames : 4 frames
Muxing mode : Container profile=Unknown@2.1
Codec ID : V_MPEG4/ISO/AVC
Duration : 1h 47mn
Bit rate : 486 Kbps
Nominal bit rate : 500 Kbps
Width : 640 pixels
Height : 272 pixels
Display aspect ratio : 2.35:1
Original display aspect ratio : 2.35:1
Frame rate : 20.000 fps
Original frame rate : 43 690.668 fps
Resolution : 8 bits
Colorimetry : 4:2:0
Scan type : Progressive
Bits/(Pixel*Frame) : 0.140
Stream size : 374 MiB (78%)
Writing library : x264 core 96 r1613 81e75e9
Audio
ID : 2
Format : MPEG Audio
Format version : Version 1
Format profile : Layer 3
Format_Settings_Mode : Joint stereo
Format_Settings_ModeExtension : MS Stereo
Codec ID : A_MPEG/L3
Codec ID/Hint : MP3
Duration : 1h 47mn
Bit rate mode : Constant
Bit rate : 128 Kbps
Channel(s) : 2 channels
Sampling rate : 48.0 KHz
Stream size : 98.5 MiB (20%)
Writing library : LAME3.97